<?xml version="1.0" standalone="no"?>
<!DOCTYPE svg PUBLIC "-//W3C//DTD SVG 20010904//EN"
 "http://www.w3.org/TR/2001/REC-SVG-20010904/DTD/svg10.dtd">
<svg version="1.0" xmlns="http://www.w3.org/2000/svg"
 width="269.000000pt" height="269.000000pt" viewBox="0 0 269.000000 269.000000"
 preserveAspectRatio="xMidYMid meet">
<metadata>
Created by potrace 1.11, written by Peter Selinger 2001-2013
</metadata>
<g transform="translate(0.000000,269.000000) scale(0.100000,-0.100000)"
fill="#000000" stroke="none">
<path d="M1139 2636 c-144 -39 -264 -178 -282 -328 -8 -67 8 -82 82 -74 75 8
149 46 215 110 64 63 102 133 114 210 15 93 -16 113 -129 82z m31 -120 c-14
-42 -89 -129 -139 -160 -49 -31 -81 -38 -81 -19 0 55 113 182 183 206 23 8 44
13 45 11 2 -1 -1 -19 -8 -38z"/>
<path d="M1571 2421 c-16 -28 -5 -102 25 -169 30 -69 126 -165 196 -197 68
-30 138 -41 168 -25 20 11 22 18 18 68 -6 80 -45 159 -113 227 -68 67 -142
105 -225 112 -52 5 -59 3 -69 -16z m154 -97 c61 -28 146 -128 161 -187 l6 -28
-45 18 c-75 30 -155 115 -187 199 -9 23 -8 25 12 19 13 -4 37 -14 53 -21z"/>
<path d="M181 2389 c-75 -30 -126 -103 -117 -167 3 -21 5 -41 6 -47 0 -5 172
-182 382 -392 l383 -383 -372 0 c-331 0 -373 -2 -388 -16 -27 -27 -13 -193 30
-359 146 -557 654 -955 1225 -959 69 -1 154 3 190 7 519 64 961 455 1088 962
26 101 30 128 38 244 6 84 5 95 -11 108 -15 10 -89 13 -356 13 l-337 0 19 50
c10 28 19 71 19 95 0 39 -4 47 -25 57 -29 13 -118 -3 -176 -33 -41 -21 -141
-113 -158 -146 -11 -22 -16 -23 -172 -23 l-160 0 -487 486 c-289 290 -500 492
-519 500 -37 16 -68 17 -102 3z m134 -139 l60 -60 -53 -52 -52 -53 -60 60
c-68 68 -75 94 -33 137 42 44 69 37 138 -32z m490 -490 l360 -360 -105 0 -105
0 -307 307 c-170 170 -308 312 -308 317 0 13 83 96 95 96 6 0 172 -162 370
-360z m1080 -272 c-4 -13 -16 -38 -27 -55 -19 -31 -23 -33 -79 -33 -66 0 -68
5 -16 50 39 33 87 59 110 60 14 0 17 -5 12 -22z m-751 -181 c12 -5 13 -14 7
-63 -1 -8 -135 -11 -494 -10 l-492 1 -3 37 c-3 35 -2 37 30 40 54 5 938 0 952
-5z m1161 4 c19 -1 20 -7 18 -192 -3 -197 -7 -219 -44 -219 -21 0 -34 21 -43
71 -14 81 -121 122 -190 74 -46 -33 -56 -64 -56 -177 0 -83 -3 -110 -16 -122
-18 -19 -20 -19 -45 -6 -17 10 -19 23 -19 163 0 133 -2 156 -20 184 -52 86
-183 79 -222 -11 -8 -20 -12 -92 -13 -216 -1 -102 -4 -191 -9 -198 -9 -14 -35
-15 -56 -2 -12 7 -14 50 -15 247 -1 170 -5 245 -14 261 -19 35 -70 62 -119 62
-34 0 -49 -6 -80 -34 l-37 -34 -4 -166 c-3 -146 -5 -168 -20 -176 -12 -6 -24
-4 -39 6 -20 14 -21 22 -20 247 l0 232 37 5 c27 4 893 4 1026 1z m258 0 c5 -1
7 -18 5 -38 l-3 -38 -77 -1 -78 -2 0 38 c0 32 4 39 23 42 18 2 88 2 130 -1z
m-1408 -326 c1 -183 11 -216 70 -241 47 -19 84 -18 123 6 52 32 60 66 59 229
0 129 2 145 18 157 24 18 30 17 49 -2 14 -13 16 -50 16 -247 0 -215 2 -234 20
-265 25 -41 81 -66 126 -57 44 8 91 48 99 84 3 16 7 111 7 210 2 193 5 206 50
199 23 -3 23 -5 28 -163 5 -173 12 -196 64 -230 32 -21 100 -22 131 -1 49 32
58 59 61 177 2 108 11 139 40 139 22 0 44 -30 44 -62 0 -40 54 -94 102 -103
47 -9 104 17 129 59 16 26 19 51 19 152 l0 122 70 0 c83 0 82 4 44 -124 -92
-319 -307 -582 -602 -736 -85 -45 -204 -92 -260 -103 -147 -30 -188 -34 -322
-31 -153 4 -159 5 -285 37 -333 85 -622 325 -776 644 -45 93 -99 255 -99 295
0 16 29 17 487 16 l488 -1 0 -160z"/>
<path d="M1158 2131 c-27 -39 -2 -151 49 -220 75 -103 171 -165 274 -177 73
-8 90 7 82 74 -12 97 -43 155 -127 236 -61 58 -136 95 -210 103 -47 5 -55 3
-68 -16z m152 -99 c71 -43 160 -153 160 -197 0 -19 -2 -19 -53 5 -76 36 -176
152 -177 207 0 13 34 6 70 -15z"/>
<path d="M2326 2129 c-25 -9 -61 -26 -80 -38 -44 -27 -122 -113 -145 -160 -33
-65 -47 -152 -30 -183 10 -18 18 -20 71 -15 34 3 82 16 112 31 60 29 159 124
186 176 42 83 54 166 29 197 -16 18 -85 15 -143 -8z m44 -132 c-31 -61 -105
-133 -163 -157 -27 -12 -51 -20 -53 -18 -2 2 7 26 20 53 36 77 112 149 181
172 39 13 42 2 15 -50z"/>
</g>
</svg>
